<svg width="227" height="250" viewBox="0 0 227 250" fill="none" xmlns="http://www.w3.org/2000/svg">
<path d="M124.127 163V250H144.879V241.784H135.711V210.608H144.879V202.392H135.711V171.216H144.879V163H124.127Z" fill="white"/>
<path d="M182.115 163V250H202.868V241.784H193.699V210.608H202.868V202.392H193.699V171.216H202.868V163H182.115Z" fill="white"/>
<path d="M111.578 163H100V250H120.753V241.784H111.578V163Z" fill="white"/>
<path d="M217.831 241.784V163H206.247V250H227V241.784H217.831Z" fill="white"/>
<path d="M163.384 224.495L158.063 163H148.259L157.387 250H169.381L178.516 163H168.705L163.384 224.495Z" fill="white"/>
<path d="M80 103.169V27.7833C80 12.4368 67.6491 0 52.4087 0H0V250H52.4087C67.6491 250 80 237.563 80 222.217V146.831C80 125 46.8937 125 46.8937 125C46.8937 125 80 125 80 103.169ZM46.8937 222.217C46.8937 224.511 43.806 226.39 39.9917 226.39H33.0898V136.805H39.9917C43.806 136.805 46.8937 138.667 46.8937 140.978V222.217ZM46.8937 109.022C46.8937 111.316 43.806 113.178 39.9917 113.178H33.0898V23.61H39.9917C43.806 23.61 46.8937 25.4722 46.8937 27.7833V109.022Z" fill="white"/>
</svg>
