<svg width="227" height="250" viewBox="0 0 227 250" fill="none" xmlns="http://www.w3.org/2000/svg">
	<path d="M46.884 89.585H79.9835V27.7833C79.9835 12.4368 67.6352 0 52.3979 0H27.5856C12.3483 0 0 12.4368 0 27.7833V222.217C0 237.563 12.3483 250 27.5856 250H52.4144C67.6517 250 80 237.563 80 222.217V113.195H40.0495V136.805H46.9005V222.217C46.9005 224.511 43.8135 226.39 40 226.39C36.1865 226.39 33.0995 224.528 33.0995 222.217V27.7833C33.0995 25.4888 36.1865 23.61 40 23.61C43.8135 23.61 46.9005 25.4722 46.9005 27.7833V89.585H46.884Z" />
	<path d="M124.127 163V250H144.879V241.784H135.71V210.608H144.879V202.392H135.71V171.216H144.879V163H124.127Z" />
	<path d="M182.115 163V250H202.868V241.784H193.699V210.608H202.868V202.392H193.699V171.216H202.868V163H182.115Z" />
	<path d="M111.578 163H100V250H120.753V241.784H111.578V163Z" />
	<path d="M217.831 241.784V163H206.247V250H227V241.784H217.831Z" />
	<path d="M163.384 224.495L158.063 163H148.259L157.387 250H169.381L178.516 163H168.705L163.384 224.495Z" />
</svg>