<svg width="227" height="250" viewBox="0 0 227 250" fill="none" xmlns="http://www.w3.org/2000/svg">
<path d="M124.126 163V250H144.879V241.784H135.71V210.608H144.879V202.392H135.71V171.216H144.879V163H124.126Z" fill="white"/>
<path d="M182.115 163V250H202.867V241.784H193.699V210.608H202.867V202.392H193.699V171.216H202.867V163H182.115Z" fill="white"/>
<path d="M111.578 163H100V250H120.753V241.784H111.578V163Z" fill="white"/>
<path d="M217.831 241.784V163H206.248V250H227V241.784H217.831Z" fill="white"/>
<path d="M163.385 224.495L158.064 163H148.259L157.388 250H169.382L178.516 163H168.706L163.385 224.495Z" fill="white"/>
<path d="M79.9835 27.7796C79.9835 12.4352 67.6352 0 52.3979 0H27.5856C12.3483 0 0 12.4352 0 27.7796V73.68C0 83.422 2.5423 93.0144 7.39579 101.46L43.929 165.198C45.8605 168.573 46.884 172.413 46.884 176.303V222.204C46.884 224.498 43.7969 226.377 39.9835 226.377C36.17 226.377 33.083 224.515 33.083 222.22V170.368H0V222.22C0 237.565 12.3483 250 27.5856 250H52.4144C67.6517 250 80 237.565 80 222.22V176.32C80 166.578 77.4577 156.986 72.6042 148.54L36.0545 84.7852C34.123 81.4104 33.0995 77.5702 33.0995 73.68V27.7796C33.0995 25.4854 36.1865 23.6069 40 23.6069C43.8135 23.6069 46.9005 25.4688 46.9005 27.763V79.4986H80V27.7796H79.9835Z" fill="white"/>
</svg>
