<svg width="178" height="84" viewBox="0 0 178 84" fill="none" xmlns="http://www.w3.org/2000/svg">
<path d="M15.9475 30.1007H27.2062V9.33543C27.2062 4.17902 23.0059 0.000259399 17.823 0.000259399H9.38318C4.20025 0.000259399 0 4.17902 0 9.33543V74.6648C0 79.8212 4.20025 84 9.38318 84H17.8286C23.0115 84 27.2118 79.8212 27.2118 74.6648V38.0337H13.6227V45.9666H15.9531V74.6648C15.9531 75.4358 14.903 76.0671 13.6059 76.0671C12.3088 76.0671 11.2587 75.4414 11.2587 74.6648V9.33543C11.2587 8.56448 12.3088 7.9332 13.6059 7.9332C14.903 7.9332 15.9531 8.55889 15.9531 9.33543V30.1007H15.9475Z" fill="white"/>
<path d="M77.4485 0V83.9998H97.7328V76.0668H88.7709V45.9664H97.7328V38.0334H88.7709V7.93294H97.7328V0H77.4485Z" fill="#916C58"/>
<path d="M134.128 0V83.9998H154.412V76.0668H145.451V45.9664H154.412V38.0334H145.451V7.93294H154.412V0H134.128Z" fill="#916C58"/>
<path d="M65.1828 0.000183105H53.866V84H74.1504V76.067H65.1828V0.000183105Z" fill="#916C58"/>
<path d="M169.038 76.0668V0H157.716V83.9998H178V76.0668H169.038Z" fill="#916C58"/>
<path d="M115.82 59.3741L110.619 0H101.036L109.959 83.9998H121.682L130.61 0H121.021L115.82 59.3741Z" fill="#916C58"/>
</svg>
