<svg xmlns="http://www.w3.org/2000/svg" width="1440" height="202" viewBox="0 0 1440 202" fill="none">
    <path d="M379.2 0.399992H1183.2L1063.2 202H259.2L379.2 0.399992Z" fill="#916C58"/>
    <path d="M307.2 0.399992H343.2L223.2 202H187.2L307.2 0.399992Z" fill="#916C58"/>
    <path d="M235.2 0.399992H271.2L151.2 202H115.2L235.2 0.399992Z" fill="#916C58"/>
    <path d="M163.2 0.399992H199.2L79.1997 202H43.1997L163.2 0.399992Z" fill="#916C58"/>
    <path d="M91.2007 0.399992H127.201L7.20069 202H-28.7993L91.2007 0.399992Z" fill="#916C58"/>
    <path d="M19.2007 0.399994H55.2007L-64.7993 202H-100.799L19.2007 0.399994Z" fill="#916C58"/>
    <path d="M1507.2 0.399992H1543.2L1423.2 202H1387.2L1507.2 0.399992Z" fill="#916C58"/>
    <path d="M1435.2 0.399992H1471.2L1351.2 202H1315.2L1435.2 0.399992Z" fill="#916C58"/>
    <path d="M1363.2 0.399992H1399.2L1279.2 202H1243.2L1363.2 0.399992Z" fill="#916C58"/>
    <path d="M1291.2 0.399992H1327.2L1207.2 202H1171.2L1291.2 0.399992Z" fill="#916C58"/>
    <path d="M1219.2 0.399992H1255.2L1135.2 202H1099.2L1219.2 0.399992Z" fill="#916C58"/>
</svg>