<svg width="320" height="568" viewBox="0 0 320 568" fill="none" xmlns="http://www.w3.org/2000/svg">
<g clip-path="url(#clip0)">
<rect width="320" height="568" fill="black"/>
<path d="M57 -382.916L152.865 -415L345.694 160.785L272.958 261.93L57 -382.916Z" fill="url(#paint0_linear)"/>
<path d="M148.784 -249.13L244.648 -281.216L437.469 294.572L364.732 395.719L148.784 -249.13Z" fill="url(#paint1_linear)"/>
<path d="M240.567 -142.662L336.432 -174.748L529.252 401.04L456.515 502.187L240.567 -142.662Z" fill="url(#paint2_linear)"/>
<path d="M262.379 950.103L166.515 982.187L-26.315 406.402L46.4215 305.257L262.379 950.103Z" fill="url(#paint3_linear)"/>
<path d="M170.595 816.317L74.7309 848.403L-118.089 272.615L-45.3522 171.468L170.595 816.317Z" fill="url(#paint4_linear)"/>
<path d="M78.812 709.849L-17.0523 741.935L-209.872 166.147L-137.135 65L78.812 709.849Z" fill="url(#paint5_linear)"/>
</g>
<defs>
<linearGradient id="paint0_linear" x1="96.7586" y1="-45.6143" x2="281.988" y2="-63.7954" gradientUnits="userSpaceOnUse">
<stop stop-color="white" stop-opacity="0.25"/>
<stop offset="0.619792" stop-color="white" stop-opacity="0"/>
</linearGradient>
<linearGradient id="paint1_linear" x1="188.538" y1="88.1744" x2="373.767" y2="69.9962" gradientUnits="userSpaceOnUse">
<stop stop-color="white" stop-opacity="0.25"/>
<stop offset="0.619792" stop-color="white" stop-opacity="0"/>
</linearGradient>
<linearGradient id="paint2_linear" x1="280.321" y1="194.643" x2="465.55" y2="176.464" gradientUnits="userSpaceOnUse">
<stop stop-color="white" stop-opacity="0.25"/>
<stop offset="0.619792" stop-color="white" stop-opacity="0"/>
</linearGradient>
<linearGradient id="paint3_linear" x1="222.621" y1="612.802" x2="37.3909" y2="630.983" gradientUnits="userSpaceOnUse">
<stop stop-color="white" stop-opacity="0.25"/>
<stop offset="0.619792" stop-color="white" stop-opacity="0"/>
</linearGradient>
<linearGradient id="paint4_linear" x1="130.841" y1="479.013" x2="-54.3874" y2="497.191" gradientUnits="userSpaceOnUse">
<stop stop-color="white" stop-opacity="0.25"/>
<stop offset="0.619792" stop-color="white" stop-opacity="0"/>
</linearGradient>
<linearGradient id="paint5_linear" x1="39.0582" y1="372.545" x2="-146.171" y2="390.723" gradientUnits="userSpaceOnUse">
<stop stop-color="white" stop-opacity="0.25"/>
<stop offset="0.619792" stop-color="white" stop-opacity="0"/>
</linearGradient>
<clipPath id="clip0">
<rect width="320" height="568" fill="white"/>
</clipPath>
</defs>
</svg>
