<svg width="1920" height="1200" viewBox="0 0 1920 1200" fill="none" xmlns="http://www.w3.org/2000/svg">
<g clip-path="url(#clip0)">
<rect width="1920" height="1200" fill="black"/>
<path d="M939.732 -1348.14L1377.55 -1494.67L2258.2 1134.95L1926.01 1596.87L939.732 -1348.14Z" fill="url(#paint0_linear)"/>
<path d="M1358.91 -737.138L1796.72 -883.673L2677.33 1745.95L2345.14 2207.89L1358.91 -737.138Z" fill="url(#paint1_linear)"/>
<path d="M1778.09 -250.897L2215.9 -397.433L3096.51 2232.19L2764.32 2694.13L1778.09 -250.897Z" fill="url(#paint2_linear)"/>
<path d="M979.733 2547.6L541.918 2694.13L-338.736 64.5195L-6.54798 -397.41L979.733 2547.6Z" fill="url(#paint3_linear)"/>
<path d="M560.554 1936.6L122.741 2083.14L-757.869 -546.488L-425.678 -1008.43L560.554 1936.6Z" fill="url(#paint4_linear)"/>
<path d="M141.379 1450.36L-296.433 1596.9L-1177.04 -1032.73L-844.853 -1494.67L141.379 1450.36Z" fill="url(#paint5_linear)"/>
</g>
<defs>
<linearGradient id="paint0_linear" x1="1121.31" y1="192.32" x2="1967.26" y2="109.287" gradientUnits="userSpaceOnUse">
<stop stop-color="white" stop-opacity="0.25"/>
<stop offset="0.619792" stop-color="white" stop-opacity="0"/>
</linearGradient>
<linearGradient id="paint1_linear" x1="1540.47" y1="803.333" x2="2386.41" y2="720.313" gradientUnits="userSpaceOnUse">
<stop stop-color="white" stop-opacity="0.25"/>
<stop offset="0.619792" stop-color="white" stop-opacity="0"/>
</linearGradient>
<linearGradient id="paint2_linear" x1="1959.64" y1="1289.57" x2="2805.58" y2="1206.55" gradientUnits="userSpaceOnUse">
<stop stop-color="white" stop-opacity="0.25"/>
<stop offset="0.619792" stop-color="white" stop-opacity="0"/>
</linearGradient>
<linearGradient id="paint3_linear" x1="798.155" y1="1007.15" x2="-47.7905" y2="1090.18" gradientUnits="userSpaceOnUse">
<stop stop-color="white" stop-opacity="0.25"/>
<stop offset="0.619792" stop-color="white" stop-opacity="0"/>
</linearGradient>
<linearGradient id="paint4_linear" x1="378.999" y1="396.132" x2="-466.943" y2="479.152" gradientUnits="userSpaceOnUse">
<stop stop-color="white" stop-opacity="0.25"/>
<stop offset="0.619792" stop-color="white" stop-opacity="0"/>
</linearGradient>
<linearGradient id="paint5_linear" x1="-40.1763" y1="-90.1084" x2="-886.117" y2="-7.08842" gradientUnits="userSpaceOnUse">
<stop stop-color="white" stop-opacity="0.25"/>
<stop offset="0.619792" stop-color="white" stop-opacity="0"/>
</linearGradient>
<clipPath id="clip0">
<rect width="1920" height="1200" fill="white"/>
</clipPath>
</defs>
</svg>
