<svg width="420" height="150" viewBox="0 0 420 150" fill="none" xmlns="http://www.w3.org/2000/svg">
<path d="M28.0529 53.9313H47.8579V16.9198C47.8579 7.72917 40.4693 0.281067 31.3521 0.281067H16.5058C7.38859 0.281067 0 7.72917 0 16.9198V133.361C0 142.552 7.38859 150 16.5058 150H31.362C40.4792 150 47.8678 142.552 47.8678 133.361V68.0708H23.9635V82.2103H28.0628V133.361C28.0628 134.735 26.2157 135.861 23.9339 135.861C21.6521 135.861 19.805 134.745 19.805 133.361V16.9198C19.805 15.5457 21.6521 14.4205 23.9339 14.4205C26.2157 14.4205 28.0628 15.5357 28.0628 16.9198V53.9313H28.0529Z" fill="#916C58"/>
<path d="M105.604 62.0642V16.9175C105.604 7.72686 98.2154 0.278748 89.0982 0.278748H57.7461V149.998H89.0982C98.2154 149.998 105.604 142.55 105.604 133.359V88.2122C105.604 75.1382 85.799 75.1382 85.799 75.1382C85.799 75.1382 105.604 75.1382 105.604 62.0642ZM85.799 133.359C85.799 134.733 83.9519 135.858 81.6701 135.858H77.5412V82.2079H81.6701C83.9519 82.2079 85.799 83.3232 85.799 84.7072V133.359ZM85.799 65.5692C85.799 66.9433 83.9519 68.0585 81.6701 68.0585H77.5412V14.4182H81.6701C83.9519 14.4182 85.799 15.5334 85.799 16.9175V65.5692Z" fill="#916C58"/>
<path d="M163.341 16.6388C163.341 7.44811 155.952 0 146.835 0H131.989C122.871 0 115.483 7.44811 115.483 16.6388V44.131C115.483 49.966 117.004 55.7114 119.908 60.7698L141.768 98.9463C142.923 100.968 143.536 103.268 143.536 105.598V133.09C143.536 134.464 141.689 135.589 139.407 135.589C137.125 135.589 135.278 134.474 135.278 133.1V102.043H115.483V133.1C115.483 142.291 122.871 149.739 131.989 149.739H146.845C155.962 149.739 163.351 142.291 163.351 133.1V105.608C163.351 99.7728 161.83 94.0274 158.925 88.969L137.056 50.7825C135.9 48.7612 135.288 46.461 135.288 44.131V16.6388C135.288 15.2646 137.135 14.1395 139.417 14.1395C141.699 14.1395 143.546 15.2547 143.546 16.6288V47.6161H163.351V16.6388H163.341Z" fill="#916C58"/>
<path d="M244.114 0.278748V149.998H279.595V135.858H263.919V82.2079H279.595V68.0685H263.919V14.4182H279.595V0.278748H244.114Z" fill="#916C58"/>
<path d="M343.258 0.278748V149.998H378.739V135.858H363.063V82.2079H378.739V68.0685H363.063V14.4182H378.739V0.278748H343.258Z" fill="#916C58"/>
<path d="M222.659 0.278748H202.864V149.998H238.345V135.858H222.659V0.278748Z" fill="#916C58"/>
<path d="M404.324 135.858V0.278748H384.519V149.998H420V135.858H404.324Z" fill="#916C58"/>
<path d="M311.236 106.106L302.139 0.278748H285.376L300.983 149.998H321.489L337.106 0.278748H320.333L311.236 106.106Z" fill="#916C58"/>
</svg>
